<?xml version="1.0" encoding="utf-8"?>
<!-- Generator: Adobe Illustrator 21.1.0, SVG Export Plug-In . SVG Version: 6.00 Build 0)  -->
<svg version="1.1" id="ico_x5F_mouse_x5F_services" xmlns="http://www.w3.org/2000/svg" xmlns:xlink="http://www.w3.org/1999/xlink"
	 x="0px" y="0px" viewBox="0 0 742 1078" style="enable-background:new 0 0 742 1078;" xml:space="preserve" width="742" height="1078">
<style type="text/css">
	.st0{fill:#215764;}
</style>
<path id="ico_x5F_mouse" class="st0" d="M638.1,510.9l26.8-39.7c50.9-75.5,30.9-178.4-44.7-229.3l-2.5-1.7
	c-75.5-50.9-178.4-30.9-229.3,44.7L305,408.6c-34.6,51.4-104.6,65-155.9,30.4l-2.2-1.5C95.5,403,81.9,333,116.5,281.7L282.6,35.1
	c5.3-7.9,3.2-18.5-4.6-23.8c-7.9-5.3-18.5-3.2-23.8,4.6L88.1,262.5C42.9,329.5,60.7,420.8,127.7,466l2.2,1.5
	c67.1,45.2,158.4,27.4,203.5-39.7l83.4-123.8c40.3-59.8,121.8-75.7,181.7-35.4l2.5,1.7c59.8,40.3,75.7,121.8,35.4,181.7l-26.9,39.9
	c-89-49.9-203.3-24-261.3,62.2l-90.7,134.5c-61.1,90.7-37,214.2,53.6,275.3l3,2c58.8,39.6,134.9,44.8,198.6,13.4
	c8.5-4.2,12-14.5,7.8-23c-4.2-8.5-14.5-12-23-7.8c-52.7,25.9-115.6,21.7-164.2-11.1l-3-2c-75-50.5-94.9-152.7-44.4-227.6l90.7-134.5
	c47.5-70.4,140.4-92.3,213.7-52.8l-10.9,16.2l-89.1,132.3l-77.9-52.5c-7.9-5.3-18.5-3.2-23.8,4.6s-3.2,18.5,4.6,23.8l230.5,155.3
	l-37.8,56.1c-5.3,7.9-3.2,18.5,4.6,23.8s18.5,3.2,23.8-4.6l65.8-97.7C738.6,691,719.1,574.4,638.1,510.9z M518.7,688.1l89.1-132.3
	l11-16.4c65.4,52.8,80.7,148.1,32.9,219.1l-8.9,13.2L518.7,688.1z"/>
</svg>
